<?xml version="1.0" encoding="UTF-8"?>
<svg width="204px" height="54px" viewBox="0 0 204 54" version="1.1" xmlns="http://www.w3.org/2000/svg" xmlns:xlink="http://www.w3.org/1999/xlink">
    <!-- Generator: Sketch 54.1 (76490) - https://sketchapp.com -->
    <title>Branding / Logo / Discriptor / DLL Blue</title>
    <desc>Created with Sketch.</desc>
    <g id="Branding-/-Logo-/-Discriptor-/-DLL-Blue" stroke="none" stroke-width="1" fill="none" fill-rule="evenodd">
        <path d="M18.5290308,43.0251377 C12.9519949,43.0251377 8.90536507,39.0863999 8.90536507,33.6566491 C8.90536507,28.459354 13.0544852,24.229179 18.1555492,24.229179 C23.3234925,24.229179 27.2207297,28.3379218 27.2207297,33.782418 C27.2207297,38.9667025 23.4025316,43.0251377 18.5290308,43.0251377 Z M34.5670262,0.00607160641 C35.3556804,0.00607160641 36.0018904,0.650529258 36.0018904,1.43810335 L36.0018904,49.3031788 C36.0018904,50.0916202 35.3556804,50.73868 34.5670262,50.73868 L28.972619,50.73868 C28.1830963,50.73868 27.5386233,50.0916202 27.5386233,49.3031788 L27.5386233,48.3959073 L27.5316748,48.3872336 C24.6037527,50.5148979 21.3449085,51.5496731 17.5970639,51.5496731 C13.2846541,51.5496731 9.41607946,50.1644795 6.40738107,47.545015 C2.27650072,43.987921 0,39.0118059 0,33.5334822 C0,28.5018552 2.1288452,23.6697239 5.84194728,20.2748285 C8.98092996,17.3257626 13.0475367,15.7662271 17.5970639,15.7662271 C21.6445623,15.7662271 24.7470654,16.7038566 27.5316748,18.787285 L27.5386233,18.705752 L27.5386233,1.43810335 C27.5386233,0.650529258 28.1830963,0.00607160641 28.972619,0.00607160641 L34.5670262,0.00607160641 Z M74.7649391,29.6016833 C75.5553304,29.6016833 76.2015404,30.2452736 76.2015404,31.0345825 L76.2015404,36.6013782 C76.2015404,37.3872175 75.5674902,38.04989 74.7649391,38.04989 L54.3789229,38.04989 C53.5885316,38.04989 52.9440587,37.4045649 52.9440587,36.6169909 L52.9292931,1.43203174 C52.9292931,0.643590279 53.573766,0 54.3632888,0 L59.9576959,0 C60.7480872,0 61.3934287,0.643590279 61.3934287,1.43203174 L61.3934287,29.6016833 L74.7649391,29.6016833 Z M74.7579906,42.2713912 C75.5353534,42.2748607 76.1937234,42.9236552 76.1937234,43.7112293 L76.1937234,49.2173089 C76.1937234,50.0066177 75.5483819,50.6770966 74.7579906,50.731741 L41.6683882,50.731741 C40.879734,50.6770966 40.2335239,50.0317715 40.2335239,49.2424627 L40.2335239,1.43203174 C40.2335239,0.644457651 40.879734,0 41.6683882,0 L47.2627953,0 C48.0523181,0 48.6985281,0.644457651 48.6985281,1.43203174 L48.7046081,42.2765954 L74.7579906,42.2713912 Z M143.424757,36.0766179 C143.697485,36.3507076 144.02667,36.5692854 144.409706,36.7332188 C144.795347,36.8980195 145.237445,36.9812872 145.742948,36.9812872 C146.238897,36.9812872 146.648858,36.901489 146.976306,36.7418925 C147.307228,36.5840307 147.472255,36.3333601 147.472255,35.9933501 C147.472255,35.8190083 147.436644,35.6698203 147.365422,35.5405818 C147.2942,35.4156802 147.17347,35.3037891 147.0041,35.2057761 C146.832125,35.1068956 146.608904,35.0175563 146.328359,34.9342885 C146.048682,34.8527555 145.69952,34.7616814 145.283479,34.6619336 C144.986431,34.5968807 144.692857,34.5092761 144.403626,34.4008545 C144.111789,34.2906982 143.852089,34.1467144 143.619314,33.9654336 C143.390014,33.7841528 143.204142,33.5638402 143.061698,33.3062306 C142.917516,33.048621 142.847163,32.7407039 142.847163,32.379877 C142.847163,32.0051721 142.932282,31.6799075 143.103389,31.4006136 C143.27189,31.1213197 143.500321,30.8853944 143.786078,30.6937051 C144.070967,30.5028832 144.391466,30.3571647 144.747576,30.2591516 C145.105424,30.1585364 145.475431,30.1099635 145.858467,30.1099635 C146.506414,30.1099635 147.063162,30.1958334 147.52958,30.3658384 C147.995998,30.534976 148.403353,30.7735034 148.755989,31.0805532 L147.949964,32.0988483 C147.719795,31.8915463 147.429695,31.7154697 147.084876,31.5732207 C146.739189,31.4292369 146.337045,31.3598471 145.875838,31.3598471 C145.402472,31.3598471 145.025516,31.4361759 144.740628,31.5905681 C144.454002,31.7423583 144.313295,31.9947636 144.313295,32.3460494 C144.313295,32.6747836 144.501773,32.9185152 144.879598,33.076377 C145.258291,33.2368408 145.755108,33.3877636 146.369181,33.5282779 C146.73224,33.6167499 147.068374,33.7182325 147.381925,33.833593 C147.694607,33.9480862 147.969072,34.0955395 148.203584,34.2768203 C148.440701,34.4563664 148.627442,34.6784137 148.764675,34.9429622 C148.900171,35.2057761 148.969656,35.522367 148.969656,35.8970718 C148.969656,36.279583 148.881931,36.6169909 148.705613,36.9066932 C148.530163,37.1963956 148.294783,37.4401272 147.999472,37.6378881 C147.702424,37.8347816 147.361948,37.9839697 146.976306,38.0819827 C146.59327,38.1799958 146.192863,38.229436 145.777691,38.229436 C144.328929,38.229436 143.24149,37.8399859 142.518847,37.0619529 L143.424757,36.0766179 Z M153.972572,36.9465924 C154.366031,36.9465924 154.723878,36.8693962 155.041772,36.7097997 C155.360534,36.5502032 155.628051,36.3420338 155.848666,36.0844242 C156.067543,35.8268147 156.236044,35.5310407 156.350695,35.1971023 C156.464476,34.863164 156.52267,34.5214193 156.52267,34.1701335 C156.52267,33.8301235 156.464476,33.4927157 156.350695,33.1587773 C156.236044,32.8257063 156.064069,32.5273303 155.83998,32.2627817 C155.615023,31.9999679 155.346637,31.7900638 155.034823,31.6313346 C154.720404,31.4717381 154.366031,31.3919399 153.972572,31.3919399 C153.577377,31.3919399 153.221266,31.4717381 152.902504,31.6313346 C152.582873,31.7900638 152.315356,31.9982331 152.096478,32.254108 C151.875864,32.5134523 151.709968,32.8083589 151.59445,33.144032 C151.478931,33.477103 151.421606,33.8197151 151.421606,34.1701335 C151.421606,34.5214193 151.478931,34.8614292 151.59445,35.1884286 C151.709968,35.5171627 151.879338,35.8138041 152.105164,36.0766179 C152.329253,36.3385643 152.598507,36.5502032 152.912058,36.7097997 C153.223003,36.8693962 153.577377,36.9465924 153.972572,36.9465924 Z M153.972572,38.229436 C153.380213,38.229436 152.835625,38.1227492 152.342282,37.9093757 C151.848938,37.6960021 151.424212,37.4028302 151.066364,37.0298601 C150.710254,36.65689 150.430577,36.2266733 150.227333,35.7409448 C150.024958,35.2526142 149.923337,34.7278539 149.923337,34.1701335 C149.923337,33.6115457 150.024958,33.0876528 150.227333,32.6001895 C150.430577,32.1135937 150.710254,31.683377 151.066364,31.3086721 C151.424212,30.9383041 151.848938,30.6451323 152.342282,30.4317587 C152.835625,30.2183851 153.380213,30.1099635 153.972572,30.1099635 C154.554509,30.1099635 155.090411,30.2183851 155.584623,30.4317587 C156.079703,30.6451323 156.507036,30.9383041 156.870095,31.3086721 C157.231416,31.683377 157.51283,32.1135937 157.716942,32.6001895 C157.920186,33.0876528 158.020071,33.6115457 158.020071,34.1701335 C158.020071,34.7278539 157.920186,35.2526142 157.716942,35.7409448 C157.51283,36.2266733 157.231416,36.65689 156.870095,37.0298601 C156.507036,37.4028302 156.079703,37.6960021 155.584623,37.9093757 C155.090411,38.1227492 154.554509,38.229436 153.972572,38.229436 Z M159.28904,37.998715 L159.28904,27.0368633 L160.769938,27.0368633 L160.769938,37.998715 L159.28904,37.998715 Z M162.334218,30.3571647 L163.815116,30.3571647 L163.815116,34.8449492 C163.815116,35.566603 163.962771,36.0896285 164.259819,36.4131584 C164.556867,36.7366882 164.9842,36.8980195 165.543554,36.8980195 C165.971755,36.8980195 166.326128,36.8112823 166.605805,36.6352057 C166.883745,36.4608638 167.113045,36.2318775 167.287626,35.9525836 C167.463944,35.6750245 167.586411,35.3558315 167.65937,35.0002088 C167.728855,34.6428514 167.766204,34.2802898 167.766204,33.9064523 L167.766204,30.3571647 L169.247102,30.3571647 L169.247102,36.3385643 C169.247102,36.6794417 169.247102,36.9726135 169.247102,37.2180799 C169.247102,37.465281 169.252313,37.7263601 169.264473,37.998715 L167.849586,37.998715 L167.79834,36.8659267 C167.700193,36.9960326 167.579463,37.1382816 167.437019,37.2926739 C167.294574,37.4470662 167.118256,37.5858458 166.909802,37.7124821 C166.700478,37.8382511 166.459886,37.9449379 166.185421,38.0308078 C165.910087,38.1210145 165.598273,38.1652505 165.247374,38.1652505 C164.249396,38.1652505 163.512856,37.8755481 163.041227,37.3013476 C162.570466,36.7254124 162.334218,35.9404404 162.334218,34.9429622 L162.334218,30.3571647 Z M171.797199,31.5905681 L170.414449,31.5905681 L170.414449,30.3571647 L171.797199,30.3571647 L171.797199,27.8599997 L173.278097,27.8599997 L173.278097,30.3571647 L175.515513,30.3571647 L175.515513,31.5905681 L173.278097,31.5905681 L173.278097,35.3549641 C173.278097,35.9664616 173.372771,36.3880046 173.56646,36.6204603 C173.757544,36.8485793 174.029403,36.9639398 174.378565,36.9639398 C174.665191,36.9639398 174.90144,36.9214386 175.08818,36.8338339 C175.274053,36.745362 175.460793,36.6135214 175.647534,36.4391795 L176.321538,37.3429815 C176.003645,37.6482966 175.677934,37.8703439 175.342669,38.0073887 C175.008273,38.1444336 174.61134,38.2138233 174.150133,38.2138233 C173.33716,38.2138233 172.743063,37.9935108 172.365239,37.5554877 C171.986546,37.1165973 171.797199,36.4322406 171.797199,35.4998153 L171.797199,31.5905681 Z M177.35947,37.9995824 L177.35947,30.3571647 L178.840368,30.3571647 L178.840368,37.9995824 L177.35947,37.9995824 Z M177.259585,28.9936553 L177.259585,27.3326373 L178.922013,27.3326373 L178.922013,28.9936553 L177.259585,28.9936553 Z M184.221109,36.9465924 C184.616304,36.9465924 184.972415,36.8693962 185.292045,36.7097997 C185.610808,36.5502032 185.878325,36.3420338 186.097202,36.0844242 C186.317817,35.8268147 186.486318,35.5310407 186.6001,35.1971023 C186.71475,34.863164 186.772943,34.5214193 186.772943,34.1701335 C186.772943,33.8301235 186.71475,33.4927157 186.6001,33.1587773 C186.486318,32.8257063 186.314343,32.5273303 186.091122,32.2627817 C185.865296,31.9999679 185.595174,31.7900638 185.28336,31.6313346 C184.971546,31.4717381 184.616304,31.3919399 184.221109,31.3919399 C183.825913,31.3919399 183.469803,31.4717381 183.152777,31.6313346 C182.834015,31.7900638 182.56563,31.9982331 182.345015,32.254108 C182.126137,32.5134523 181.958505,32.8083589 181.844723,33.144032 C181.729205,33.477103 181.671879,33.8197151 181.671879,34.1701335 C181.671879,34.5214193 181.729205,34.8614292 181.844723,35.1884286 C181.958505,35.5171627 182.127874,35.8138041 182.353701,36.0766179 C182.579527,36.3385643 182.847044,36.5502032 183.161463,36.7097997 C183.47154,36.8693962 183.825913,36.9465924 184.221109,36.9465924 Z M184.221109,38.229436 C183.629618,38.229436 183.086767,38.1227492 182.590818,37.9093757 C182.099212,37.6960021 181.673617,37.4028302 181.317506,37.0298601 C180.95879,36.65689 180.68085,36.2266733 180.477607,35.7409448 C180.273495,35.2526142 180.171873,34.7278539 180.171873,34.1701335 C180.171873,33.6115457 180.273495,33.0876528 180.477607,32.6001895 C180.68085,32.1135937 180.95879,31.683377 181.317506,31.3086721 C181.673617,30.9383041 182.099212,30.6451323 182.590818,30.4317587 C183.086767,30.2183851 183.629618,30.1099635 184.221109,30.1099635 C184.803045,30.1099635 185.340685,30.2183851 185.834897,30.4317587 C186.32824,30.6451323 186.755572,30.9383041 187.118631,31.3086721 C187.479953,31.683377 187.761367,32.1135937 187.967216,32.6001895 C188.168722,33.0876528 188.270344,33.6115457 188.270344,34.1701335 C188.270344,34.7278539 188.168722,35.2526142 187.967216,35.7409448 C187.761367,36.2266733 187.479953,36.65689 187.118631,37.0298601 C186.755572,37.4028302 186.32824,37.6960021 185.834897,37.9093757 C185.340685,38.1227492 184.803045,38.229436 184.221109,38.229436 Z M189.480251,32.0173153 C189.480251,31.6781727 189.480251,31.3832661 189.480251,31.1377998 C189.480251,30.8905986 189.475039,30.6312543 189.46288,30.3571647 L190.877767,30.3571647 L190.927275,31.5073004 C191.02716,31.3754598 191.14789,31.2297412 191.290334,31.0718795 C191.432778,30.912283 191.607359,30.7665644 191.817551,30.6364586 C192.025137,30.504618 192.269203,30.3961964 192.54888,30.3077244 C192.828557,30.2201198 193.144713,30.1758838 193.495612,30.1758838 C194.494459,30.1758838 195.234473,30.4673209 195.718262,31.0484604 C196.199446,31.6295999 196.442643,32.417174 196.442643,33.4146522 L196.442643,37.998715 L194.960008,37.998715 L194.960008,33.5282779 C194.960008,32.8170326 194.807141,32.2948745 194.49967,31.9592014 C194.191331,31.6261304 193.758787,31.4595949 193.198564,31.4595949 C192.771232,31.4595949 192.415121,31.5463321 192.130233,31.720674 C191.843608,31.8967506 191.616045,32.1222674 191.446675,32.403296 C191.276437,32.6825899 191.153101,33.0000482 191.076668,33.3574056 C191.000234,33.7130283 190.961149,34.0773246 190.961149,34.4502947 L190.961149,37.998715 L189.480251,37.998715 L189.480251,32.0173153 Z M198.452495,36.0766179 C198.726961,36.3507076 199.056146,36.5692854 199.44005,36.7332188 C199.824823,36.8980195 200.26779,36.9812872 200.773293,36.9812872 C201.266636,36.9812872 201.677466,36.901489 202.008388,36.7418925 C202.337573,36.5840307 202.501731,36.3333601 202.501731,35.9933501 C202.501731,35.8190083 202.46612,35.6698203 202.394898,35.5405818 C202.321938,35.4156802 202.202945,35.3037891 202.031839,35.2057761 C201.862469,35.1068956 201.636643,35.0175563 201.358703,34.9342885 C201.077289,34.8527555 200.728996,34.7616814 200.312086,34.6619336 C200.016775,34.5968807 199.723201,34.5092761 199.433102,34.4008545 C199.141265,34.2906982 198.881565,34.1467144 198.651396,33.9654336 C198.420358,33.7841528 198.23188,33.5638402 198.091173,33.3062306 C197.946992,33.048621 197.877507,32.7407039 197.877507,32.379877 C197.877507,32.0051721 197.960889,31.6799075 198.131996,31.4006136 C198.301365,31.1213197 198.530666,30.8853944 198.815554,30.6937051 C199.098705,30.5028832 199.420942,30.3571647 199.777052,30.2591516 C200.135768,30.1585364 200.50317,30.1099635 200.888811,30.1099635 C201.536758,30.1099635 202.092638,30.1958334 202.559924,30.3658384 C203.026342,30.534976 203.432829,30.7735034 203.786334,31.0805532 L202.978571,32.0988483 C202.747534,31.8915463 202.459171,31.7154697 202.115221,31.5732207 C201.768665,31.4292369 201.36652,31.3598471 200.905314,31.3598471 C200.431948,31.3598471 200.054123,31.4361759 199.769235,31.5905681 C199.484347,31.7423583 199.341034,31.9947636 199.341034,32.3460494 C199.341034,32.6747836 199.529512,32.9185152 199.909942,33.076377 C200.287766,33.2368408 200.783715,33.3877636 201.399526,33.5282779 C201.760847,33.6167499 202.097849,33.7182325 202.410532,33.833593 C202.724083,33.9480862 202.998548,34.0955395 203.234797,34.2768203 C203.470177,34.4563664 203.655181,34.6784137 203.792414,34.9429622 C203.930515,35.2057761 204,35.522367 204,35.8970718 C204,36.279583 203.911407,36.6169909 203.735089,36.9066932 C203.560508,37.1963956 203.324259,37.4401272 203.029816,37.6378881 C202.732768,37.8347816 202.391423,37.9839697 202.008388,38.0819827 C201.622746,38.1799958 201.222339,38.229436 200.805429,38.229436 C199.358405,38.229436 198.272703,37.8399859 197.546585,37.0619529 L198.452495,36.0766179 Z M92.1083829,32.0494081 C92.1083829,31.7102655 92.1083829,31.4170937 92.1083829,31.1698925 C92.1083829,30.9244262 92.102303,30.6650818 92.0910117,30.3909922 L93.5076361,30.3909922 L93.5562756,31.5411279 C93.6570288,31.4092873 93.7768903,31.2635688 93.9210716,31.105707 C94.0652528,30.9461105 94.2424395,30.8012593 94.4491572,30.6702861 C94.6576121,30.5367107 94.9016779,30.4282892 95.1822234,30.341552 C95.4619004,30.2539473 95.7771883,30.2097114 96.1280873,30.2097114 C97.1278021,30.2097114 97.8669482,30.4994137 98.3507372,31.0805532 C98.8327891,31.6616927 99.0751178,32.4510015 99.0751178,33.4467449 L99.0751178,38.0308078 L97.5924827,38.0308078 L97.5924827,33.5621055 C97.5924827,32.8508601 97.4396158,32.3269672 97.1330134,31.9938963 C96.8238054,31.6582232 96.3912616,31.4916877 95.8336449,31.4916877 C95.4037067,31.4916877 95.0475963,31.5784249 94.762708,31.7545015 C94.4760826,31.9288433 94.2485194,32.1560949 94.080887,32.4371235 C93.9080431,32.7155501 93.7838388,33.032141 93.7065368,33.3894984 C93.6292348,33.745121 93.591018,34.1111522 93.591018,34.4823875 L93.591018,38.0308078 L92.1083829,38.0308078 L92.1083829,32.0494081 Z M105.580646,34.4173346 C105.53635,34.4060588 105.452099,34.3921808 105.326158,34.3757007 C105.199348,34.360088 105.055166,34.3444753 104.89014,34.3349342 C104.725981,34.3245258 104.549663,34.3123825 104.362923,34.3011067 C104.176182,34.2906982 103.994652,34.285494 103.820071,34.285494 C103.402293,34.285494 103.065291,34.3349342 102.809065,34.4329473 C102.549365,34.5309604 102.347859,34.6549946 102.198466,34.8041827 C102.050811,34.951636 101.949189,35.1155693 101.89447,35.2968502 C101.838882,35.4763962 101.811088,35.6490033 101.811088,35.8138041 C101.811088,36.2301428 101.955269,36.5458663 102.239289,36.7592399 C102.525914,36.9726135 102.92111,37.0793003 103.424876,37.0793003 C103.709764,37.0793003 103.980755,37.0298601 104.238718,36.931847 C104.496681,36.8338339 104.725981,36.701126 104.922276,36.5389273 C105.121177,36.3723919 105.280993,36.1815699 105.399117,35.9629921 C105.519847,35.7426795 105.580646,35.5171627 105.580646,35.2881764 L105.580646,34.4173346 Z M105.598018,37.1113931 C105.313129,37.495639 104.936173,37.7801372 104.469756,37.9666222 C104.003338,38.1531073 103.523023,38.2467835 103.02968,38.2467835 C102.710918,38.2467835 102.396499,38.206017 102.082948,38.1227492 C101.771134,38.0394815 101.485377,37.9041714 101.228283,37.7124821 C100.97032,37.5216602 100.760996,37.2735917 100.60205,36.9726135 C100.443971,36.6707679 100.364064,36.3012673 100.364064,35.8623769 C100.364064,35.0409753 100.650689,34.3835071 101.228283,33.8908396 C101.803271,33.3981721 102.634484,33.1518383 103.721924,33.1518383 C103.896505,33.1518383 104.083246,33.1570426 104.279541,33.1691858 C104.478441,33.1795943 104.665182,33.1891354 104.8415,33.2012786 C105.016081,33.211687 105.168948,33.2229629 105.300969,33.2333713 C105.432991,33.2455146 105.525058,33.255923 105.580646,33.2671989 L105.580646,32.9861702 C105.580646,32.417174 105.407803,32.0086416 105.063852,31.7631752 C104.717296,31.5159741 104.247404,31.3919399 103.655045,31.3919399 C103.073977,31.3919399 102.613639,31.4734729 102.273163,31.6313346 C101.933555,31.7900638 101.648667,31.951395 101.415892,32.1153284 L100.725385,31.112646 C100.856538,31.0042244 101.015485,30.8940681 101.203963,30.7856466 C101.388967,30.6754903 101.609581,30.572273 101.860596,30.4803315 C102.113347,30.3875227 102.399973,30.3111939 102.716998,30.2504779 C103.034891,30.1888944 103.402293,30.1602711 103.820071,30.1602711 C104.807626,30.1602711 105.584121,30.3996659 106.149554,30.8749859 C106.71412,31.3511734 106.997271,32.0277238 106.997271,32.9046372 L106.997271,36.5198452 C106.997271,36.8043433 106.997271,37.0827698 106.997271,37.3516552 C106.997271,37.6196733 107.002482,37.8469248 107.012905,38.0308078 L105.630154,38.0308078 L105.598018,37.1113931 Z M108.576316,32.0494081 C108.576316,31.7102655 108.576316,31.4170937 108.576316,31.1698925 C108.576316,30.9244262 108.571974,30.6650818 108.561551,30.3909922 L109.976438,30.3909922 L110.025078,31.5411279 C110.124094,31.4092873 110.245692,31.2635688 110.386399,31.105707 C110.529712,30.9461105 110.70603,30.8012593 110.914485,30.6702861 C111.12294,30.5384455 111.365269,30.4282892 111.645814,30.341552 C111.925491,30.2539473 112.239042,30.2097114 112.592547,30.2097114 C113.589656,30.2097114 114.32967,30.4994137 114.812591,31.0805532 C115.29638,31.6616927 115.536971,32.4510015 115.536971,33.4467449 L115.536971,38.0308078 L114.056073,38.0308078 L114.056073,33.5621055 C114.056073,32.8508601 113.901469,32.3269672 113.594867,31.9938963 C113.287396,31.6582232 112.854852,31.4916877 112.295498,31.4916877 C111.868166,31.4916877 111.511187,31.5784249 111.226299,31.7545015 C110.94141,31.9288433 110.713847,32.1560949 110.54274,32.4371235 C110.373371,32.7155501 110.250904,33.032141 110.17447,33.3894984 C110.0963,33.745121 110.058083,34.1111522 110.058083,34.4823875 L110.058083,38.0308078 L108.576316,38.0308078 L108.576316,32.0494081 Z M123.674528,36.9812872 C123.334051,37.3655332 122.914536,37.6734504 122.415982,37.9093757 C121.917427,38.1444336 121.337228,38.2632636 120.680595,38.2632636 C120.064784,38.2632636 119.508036,38.161781 119.009482,37.9579485 C118.510927,37.7567181 118.087069,37.4774242 117.74225,37.1200668 C117.396562,36.7644442 117.129914,36.3368296 116.943173,35.8389579 C116.756432,35.3410861 116.663496,34.7955089 116.663496,34.203961 C116.663496,33.6436385 116.761644,33.1197456 116.960544,32.6253433 C117.156839,32.1326758 117.433911,31.7024592 117.791758,31.3346933 C118.147868,30.9686622 118.569989,30.6772251 119.05899,30.4638515 C119.547122,30.2504779 120.086499,30.1437911 120.680595,30.1437911 C121.326805,30.1437911 121.896582,30.2591516 122.39253,30.4890053 C122.885874,30.7197263 123.306257,31.031113 123.659762,31.4257674 L122.687841,32.3625295 C122.456804,32.0780314 122.177127,31.8525146 121.849679,31.6885812 C121.520494,31.5246478 121.13051,31.4413801 120.680595,31.4413801 C120.285399,31.4413801 119.931026,31.5177089 119.618344,31.6651622 C119.304793,31.8126154 119.041619,32.0138458 118.827952,32.2714554 C118.614286,32.5307997 118.450128,32.8257063 118.334609,33.1587773 C118.21909,33.4944504 118.163503,33.8413994 118.163503,34.203961 C118.163503,34.5535121 118.21909,34.8969915 118.334609,35.2309299 C118.450128,35.5648682 118.614286,35.8615095 118.827952,36.116517 C119.041619,36.3741266 119.304793,36.5814286 119.618344,36.7332188 C119.931026,36.887611 120.285399,36.9639398 120.680595,36.9639398 C121.13051,36.9639398 121.531786,36.8789373 121.890502,36.7097997 C122.246612,36.5406621 122.540186,36.3116758 122.770355,36.0271777 L123.674528,36.9812872 Z M124.979108,38.0316752 L124.979108,30.3909922 L126.460006,30.3909922 L126.460006,38.0316752 L124.979108,38.0316752 Z M124.879223,29.0266155 L124.879223,27.3664648 L126.541651,27.3664648 L126.541651,29.0266155 L124.879223,29.0266155 Z M133.05239,34.4173346 C133.006357,34.4060588 132.922106,34.3921808 132.796165,34.3757007 C132.669355,34.360088 132.523436,34.3444753 132.35841,34.3349342 C132.195988,34.3245258 132.01967,34.3123825 131.83293,34.3011067 C131.646189,34.2906982 131.466396,34.285494 131.290078,34.285494 C130.8723,34.285494 130.535298,34.3349342 130.277335,34.4329473 C130.019372,34.5309604 129.816129,34.6549946 129.668473,34.8041827 C129.520818,34.951636 129.419196,35.1155693 129.364477,35.2968502 C129.308889,35.4763962 129.282832,35.6490033 129.282832,35.8138041 C129.282832,36.2301428 129.425276,36.5458663 129.710164,36.7592399 C129.995921,36.9726135 130.38938,37.0793003 130.894883,37.0793003 C131.179771,37.0793003 131.452499,37.0298601 131.708725,36.931847 C131.966688,36.8338339 132.195988,36.701126 132.392283,36.5389273 C132.591184,36.3723919 132.749262,36.1815699 132.869124,35.9629921 C132.991591,35.7426795 133.05239,35.5171627 133.05239,35.2881764 L133.05239,34.4173346 Z M133.068025,37.1113931 C132.783136,37.495639 132.40618,37.7801372 131.939763,37.9666222 C131.473345,38.1531073 130.994767,38.2467835 130.501424,38.2467835 C130.180925,38.2467835 129.866505,38.206017 129.552955,38.1227492 C129.240272,38.0394815 128.955384,37.9041714 128.697421,37.7124821 C128.440327,37.5216602 128.231003,37.2735917 128.073794,36.9726135 C127.913978,36.6707679 127.832333,36.3012673 127.832333,35.8623769 C127.832333,35.0409753 128.120696,34.3835071 128.697421,33.8908396 C129.275015,33.3981721 130.106229,33.1518383 131.191931,33.1518383 C131.366512,33.1518383 131.553253,33.1570426 131.749548,33.1691858 C131.948448,33.1795943 132.133452,33.1891354 132.30977,33.2012786 C132.486088,33.211687 132.640692,33.2229629 132.770976,33.2333713 C132.901261,33.2455146 132.996803,33.255923 133.05239,33.2671989 L133.05239,32.9861702 C133.05239,32.417174 132.87781,32.0086416 132.53299,31.7631752 C132.187303,31.5177089 131.717411,31.3919399 131.125052,31.3919399 C130.544852,31.3919399 130.081909,31.4734729 129.74317,31.6313346 C129.403562,31.7900638 129.118674,31.951395 128.887636,32.1153284 L128.195392,31.112646 C128.328282,31.0042244 128.487229,30.8940681 128.672233,30.7856466 C128.860711,30.6754903 129.079588,30.572273 129.330603,30.4803315 C129.583354,30.3875227 129.868243,30.3111939 130.187005,30.2504779 C130.504898,30.1888944 130.8723,30.1602711 131.290078,30.1602711 C132.277633,30.1602711 133.054128,30.3996659 133.618693,30.8749859 C134.184127,31.3511734 134.467278,32.0277238 134.467278,32.9046372 L134.467278,36.5198452 C134.467278,36.8043433 134.467278,37.0827698 134.467278,37.3516552 C134.467278,37.6196733 134.470752,37.8469248 134.482912,38.0308078 L133.100161,38.0308078 L133.068025,37.1113931 Z M136.326869,38.0308078 L136.326869,27.0706908 L137.807767,27.0706908 L137.807767,38.0308078 L136.326869,38.0308078 Z M88.686249,38.0316752 L88.686249,30.3892574 L90.1671471,30.3892574 L90.1671471,38.0316752 L88.686249,38.0316752 Z M88.5881016,29.0257481 L88.5881016,27.3655974 L90.2496605,27.3655974 L90.2496605,29.0257481 L88.5881016,29.0257481 Z M87.0898323,26.9787494 C87.2713617,27.0377307 87.4442055,27.1201311 87.6127065,27.2181441 L86.8561891,28.2277656 C86.6208089,28.1271504 86.3784801,28.0716385 86.1274657,28.0716385 C85.6992647,28.0716385 85.3561828,28.2086834 85.0990884,28.4836404 C84.840257,28.7559953 84.7125784,29.2287132 84.7125784,29.8965899 L84.7125784,30.3892574 L86.9004858,30.3892574 L86.9004858,31.6226609 L84.7125784,31.6226609 L84.7125784,38.0308078 L83.2308118,38.0308078 L83.2308118,31.6226609 L81.8489298,31.6226609 L81.8489298,30.3892574 L83.2308118,30.3892574 L83.2308118,29.7656167 C83.2308118,29.2503975 83.3046396,28.8037008 83.4531637,28.4255264 C83.6008192,28.0464847 83.7979827,27.7377002 84.0455229,27.4965707 C84.2921944,27.2563085 84.5744771,27.0784972 84.8932393,26.9622693 C85.2111329,26.8469088 85.5455292,26.7905296 85.8972968,26.7905296 C86.3029152,26.7905296 86.699848,26.8529804 87.0898323,26.9787494 Z M84.110665,49.0525082 C84.2861145,49.1956246 84.538866,49.3326694 84.868051,49.4627753 C85.1963674,49.5946159 85.6080657,49.6614035 86.1022774,49.6614035 C86.4748905,49.6614035 86.8179724,49.5911464 87.1306547,49.4558363 C87.443337,49.3187915 87.7117226,49.1253674 87.9366801,48.8799011 C88.1616377,48.6344347 88.3344815,48.3464671 88.4552116,48.0177329 C88.5768102,47.6889988 88.636741,47.3264372 88.636741,46.9317828 C88.636741,46.5605474 88.59505,46.2083942 88.5125367,45.8796601 C88.4308919,45.5526607 88.2988704,45.2612236 88.1182096,45.0088183 C87.9366801,44.7581477 87.7039055,44.558652 87.4190172,44.4111987 C87.1323918,44.2620107 86.7823614,44.1874167 86.3654517,44.1874167 C85.8382346,44.1874167 85.3883195,44.3331352 85.0157065,44.6228376 C84.6422249,44.91254 84.3790506,45.3375524 84.2253152,45.8970076 C84.1705958,46.0730842 84.1375904,46.2613039 84.1271677,46.4642691 C84.1158764,46.6672342 84.110665,46.8780057 84.110665,47.0965835 L84.110665,49.0525082 Z M82.6454011,44.7295244 C82.6454011,44.3903818 82.6454011,44.09721 82.6454011,43.8500088 C82.6454011,43.6028077 82.6401897,43.3434634 82.629767,43.0711085 L84.0446543,43.0711085 L84.0941623,44.1553239 C84.1705958,44.0573108 84.2809031,43.9367461 84.4233473,43.7927623 C84.5657914,43.6505132 84.7438466,43.5152031 84.9583814,43.3824951 C85.1720476,43.2506545 85.4213249,43.1387635 85.7070818,43.0459547 C85.9919701,42.9522785 86.321155,42.9054404 86.6946366,42.9054404 C87.2869958,42.9054404 87.8003159,43.0155966 88.2337283,43.2350418 C88.6671407,43.4536197 89.0258567,43.7485263 89.3116136,44.1214964 C89.5956333,44.4944665 89.8075624,44.9229484 89.9447952,45.4034727 C90.082028,45.8865991 90.1506444,46.396614 90.1506444,46.9317828 C90.1506444,47.6230785 90.0316514,48.2198307 89.7962711,48.7246414 C89.5608909,49.2294521 89.25342,49.6440561 88.874727,49.9727902 C88.4969026,50.3015243 88.0739129,50.545256 87.6083637,50.7048525 C87.141946,50.8618469 86.6833453,50.9433799 86.2334303,50.9433799 C85.7183731,50.9433799 85.304069,50.8913375 84.9913868,50.7863855 C84.6778359,50.6823008 84.384262,50.5704098 84.110665,50.4489776 L84.110665,54 L82.6454011,54 L82.6454011,44.7295244 Z M96.2705315,47.0965835 C96.2271034,47.086175 96.1419843,47.0722971 96.0151743,47.055817 C95.8892328,47.0384696 95.7433144,47.0245916 95.5791562,47.0150505 C95.4158666,47.0029073 95.2395485,46.9924988 95.0528077,46.981223 C94.8660669,46.9708145 94.6845375,46.9656103 94.5099565,46.9656103 C94.0930468,46.9656103 93.7551762,47.0150505 93.4972134,47.1130636 C93.240119,47.2128114 93.0377441,47.3351109 92.8900886,47.4825642 C92.7424331,47.6317523 92.6408113,47.7956856 92.5852234,47.9752317 C92.530504,48.1582473 92.5035786,48.3291196 92.5035786,48.4939204 C92.5035786,48.9102591 92.6460227,49.2242479 92.9326481,49.4393562 C93.2157993,49.6527298 93.6101264,49.7611514 94.1147609,49.7611514 C94.3996492,49.7611514 94.671509,49.7099764 94.931209,49.6102286 C95.1865662,49.5122155 95.4158666,49.3812423 95.611293,49.2173089 C95.8093251,49.0525082 95.9691405,48.8616862 96.0898706,48.6413737 C96.2097322,48.4227958 96.2705315,48.197279 96.2705315,47.9682927 L96.2705315,47.0965835 Z M96.2879027,49.7915094 C96.0012773,50.1757553 95.6243214,50.4611208 95.1596408,50.6467385 C94.6932231,50.8332236 94.2129084,50.9268998 93.7195652,50.9268998 C93.400803,50.9268998 93.0881207,50.8861333 92.7745699,50.8028655 C92.4618876,50.7195978 92.1769993,50.5842877 91.919905,50.3925984 C91.660205,50.2017765 91.4526187,49.953708 91.2945404,49.6527298 C91.134725,49.3508842 91.0548173,48.9813836 91.0548173,48.5433606 C91.0548173,47.7210916 91.3431799,47.0636234 91.919905,46.5709559 C92.4948929,46.0782884 93.3252381,45.8310873 94.4100719,45.8310873 C94.58639,45.8310873 94.7731308,45.8354241 94.9694258,45.8475673 C95.1683264,45.8579758 95.3550672,45.870119 95.5296482,45.8796601 C95.7042291,45.8918033 95.8588331,45.9022118 95.9908546,45.9117529 C96.1220074,45.9256309 96.2149435,45.9360393 96.2705315,45.9473152 L96.2705315,45.6662865 C96.2705315,45.099025 96.0976877,44.6887579 95.7537372,44.4432915 C95.407181,44.1960904 94.937289,44.0720562 94.3457983,44.0720562 C93.7638619,44.0720562 93.3035241,44.1518544 92.9647849,44.3114509 C92.6234401,44.4701801 92.3394204,44.6315113 92.1083829,44.7954447 L91.4170076,43.7927623 C91.549029,43.6843407 91.7088444,43.5741844 91.8947167,43.4657629 C92.0805889,43.3556066 92.3003351,43.254124 92.552218,43.1613152 C92.8049695,43.067639 93.0898578,42.9895755 93.4077515,42.9305942 C93.7247766,42.8690107 94.0930468,42.8403874 94.5099565,42.8403874 C95.4975114,42.8403874 96.2740057,43.0797822 96.8377024,43.5559696 C97.4040048,44.0312897 97.6854188,44.7095748 97.6854188,45.5847535 L97.6854188,49.1999615 C97.6854188,49.485327 97.6854188,49.7628861 97.6854188,50.0300368 C97.6854188,50.2997896 97.6906302,50.5270411 97.70279,50.7135262 L96.3200395,50.7135262 L96.2879027,49.7915094 Z M99.2192991,44.6315113 C99.2192991,44.3149204 99.2192991,44.0364939 99.2192991,43.801436 C99.2192991,43.5655107 99.2140877,43.3217791 99.2019279,43.0711085 L100.616815,43.0711085 L100.666323,44.3027772 C100.756654,44.1726713 100.869567,44.0269528 101.012011,43.869091 C101.155324,43.7094945 101.328167,43.563776 101.531411,43.4319354 C101.735523,43.3000948 101.970903,43.1882037 102.239289,43.0945275 C102.508543,43.0017187 102.817751,42.9540132 103.16865,42.9540132 C103.332808,42.9540132 103.483938,42.9661564 103.622908,42.9878407 C103.759272,43.0103924 103.887819,43.0442199 104.008549,43.0867212 L103.679364,44.4667106 C103.480464,44.3903818 103.229449,44.3522174 102.922847,44.3522174 C102.604085,44.3522174 102.310511,44.4129335 102.042125,44.5334982 C101.772003,44.6531956 101.540096,44.8205985 101.341196,45.0348395 C101.144901,45.2482131 100.98856,45.4971489 100.873041,45.781647 C100.758391,46.0678799 100.700197,46.3679907 100.700197,46.6845817 L100.700197,50.7135262 L99.2192991,50.7135262 L99.2192991,44.6315113 Z M105.706588,44.3027772 L104.713822,44.3027772 L104.713822,43.0711085 L105.706588,43.0711085 L105.706588,40.5722087 L107.187486,40.5722087 L107.187486,43.0711085 L109.424901,43.0711085 L109.424901,44.3027772 L107.187486,44.3027772 L107.187486,48.0671732 C107.187486,48.6804054 107.282159,49.1019484 107.474111,49.3326694 C107.666063,49.5607883 107.938792,49.6778836 108.287954,49.6778836 C108.575448,49.6778836 108.810828,49.6336476 108.997569,49.546043 C109.18431,49.457571 109.37105,49.3257304 109.555186,49.1513886 L110.232664,50.056058 C109.913902,50.3605056 109.586454,50.5842877 109.252058,50.7195978 C108.915924,50.85751 108.518991,50.9268998 108.059522,50.9268998 C107.246548,50.9268998 106.651583,50.708322 106.27289,50.2694315 C105.895066,49.8305411 105.706588,49.1461844 105.706588,48.2146265 L105.706588,44.3027772 Z M111.286229,44.7295244 C111.286229,44.3903818 111.286229,44.09721 111.286229,43.8500088 C111.286229,43.6028077 111.281018,43.3434634 111.270595,43.0711085 L112.685483,43.0711085 L112.734991,44.2212442 C112.834875,44.0894036 112.953868,43.943685 113.096312,43.7840885 C113.240494,43.6270941 113.415075,43.4813756 113.621792,43.3504024 C113.830247,43.2185618 114.075182,43.1101402 114.354859,43.0199335 C114.634536,42.9323289 114.948086,42.8898276 115.301591,42.8898276 C116.2987,42.8898276 117.040452,43.1812648 117.521635,43.7606695 C118.005424,44.341809 118.246016,45.1311178 118.246016,46.1268612 L118.246016,50.7135262 L116.765118,50.7135262 L116.765118,46.2422218 C116.765118,45.5309764 116.610514,45.0070835 116.303912,44.6722778 C115.996441,44.3383395 115.563897,44.1726713 115.004543,44.1726713 C114.575473,44.1726713 114.2211,44.2585412 113.933606,44.4346178 C113.648718,44.6089596 113.42376,44.8362112 113.253522,45.1172398 C113.082415,45.3956664 112.958211,45.713992 112.883515,46.0696147 C112.806213,46.4252373 112.768865,46.7912685 112.768865,47.1625038 L112.768865,50.7135262 L111.286229,50.7135262 L111.286229,44.7295244 Z M125.450737,46.2257417 C125.40644,45.6341937 125.197985,45.1311178 124.824504,44.7139117 C124.451891,44.297573 123.925542,44.0894036 123.245458,44.0894036 C122.894559,44.0894036 122.579271,44.1501197 122.298726,44.2706844 C122.019049,44.3903818 121.780194,44.5499783 121.583031,44.7468718 C121.384999,44.942898 121.232132,45.1718843 121.123561,45.4294939 C121.013254,45.6871035 120.952455,45.9525194 120.940295,46.2257417 L125.450737,46.2257417 Z M126.783979,49.5946159 C126.696255,49.6952311 126.563365,49.8201327 126.388784,49.9727902 C126.212466,50.1271825 125.984902,50.2746358 125.705225,50.4168848 C125.425548,50.5608687 125.096364,50.6823008 124.717671,50.7863855 C124.339846,50.8913375 123.909039,50.9433799 123.426988,50.9433799 C122.83376,50.9433799 122.290909,50.843632 121.796697,50.6467385 C121.303354,50.4489776 120.880364,50.1714185 120.529465,49.8088568 C120.178566,49.4480299 119.906706,49.0134764 119.713885,48.5104004 C119.52367,48.0055897 119.42726,47.4470019 119.42726,46.8337697 C119.42726,46.2743145 119.520196,45.7530238 119.706937,45.2646931 C119.893678,44.7772299 120.155983,44.3548195 120.495591,43.9974621 C120.836936,43.6435742 121.240817,43.3608108 121.707235,43.1526415 C122.173653,42.9444721 122.686104,42.8403874 123.245458,42.8403874 C123.903828,42.8403874 124.468393,42.9661564 124.940022,43.2185618 C125.411652,43.4709671 125.79903,43.8031707 126.100421,44.2212442 C126.402681,44.6367156 126.623295,45.1137703 126.767477,45.6515412 C126.909921,46.1867099 126.981143,46.7452977 126.981143,47.3264372 L120.940295,47.3264372 C120.952455,47.6673145 121.026283,47.9787012 121.164384,48.2631993 C121.29988,48.5476974 121.484883,48.7940312 121.713315,49.0039353 C121.94609,49.2121047 122.209264,49.376038 122.504575,49.494868 C122.800754,49.6171675 123.113437,49.6778836 123.442622,49.6778836 C124.090569,49.6778836 124.62126,49.5677273 125.039038,49.3474147 C125.455948,49.1288369 125.758208,48.9154633 125.944949,48.707294 L126.783979,49.5946159 Z M128.205815,44.6315113 C128.205815,44.3149204 128.205815,44.0364939 128.205815,43.801436 C128.205815,43.5655107 128.200604,43.3217791 128.190181,43.0711085 L129.603331,43.0711085 L129.654576,44.3027772 C129.74317,44.1726713 129.856083,44.0269528 129.999395,43.869091 C130.143577,43.7094945 130.316421,43.563776 130.517927,43.4319354 C130.722039,43.3000948 130.957419,43.1882037 131.225805,43.0945275 C131.495059,43.0017187 131.804267,42.9540132 132.156903,42.9540132 C132.321061,42.9540132 132.470454,42.9661564 132.609424,42.9878407 C132.745788,43.0103924 132.874335,43.0442199 132.995065,43.0867212 L132.66588,44.4667106 C132.468717,44.3903818 132.215965,44.3522174 131.909363,44.3522174 C131.590601,44.3522174 131.297027,44.4129335 131.028641,44.5334982 C130.759387,44.6531956 130.52835,44.8205985 130.327712,45.0348395 C130.133154,45.2482131 129.975076,45.4971489 129.859557,45.781647 C129.744907,46.0678799 129.686713,46.3679907 129.686713,46.6845817 L129.686713,50.7135262 L128.205815,50.7135262 L128.205815,44.6315113 Z" id="Logo" fill="#0099FF"></path>
    </g>
</svg>