<?xml version="1.0" encoding="UTF-8"?>
<svg width="24px" height="24px" viewBox="0 0 24 24" version="1.1" xmlns="http://www.w3.org/2000/svg" xmlns:xlink="http://www.w3.org/1999/xlink">
    <!-- Generator: Sketch 55.2 (78181) - https://sketchapp.com -->
    <title>Icons / 24x24 / Menu</title>
    <desc>Created with Sketch.</desc>
    <g id="Icons-/-24x24-/-Menu" stroke="none" stroke-width="1" fill="none" fill-rule="evenodd">
        <path d="M2.88888889,4 L21.1111111,4 C21.6020309,4 22,4.39796911 22,4.88888889 C22,5.37980867 21.6020309,5.77777778 21.1111111,5.77777778 L2.88888889,5.77777778 C2.39796911,5.77777778 2,5.37980867 2,4.88888889 C2,4.39796911 2.39796911,4 2.88888889,4 Z M2.88888889,11.1111111 L21.1111111,11.1111111 C21.6020309,11.1111111 22,11.5090802 22,12 C22,12.4909198 21.6020309,12.8888889 21.1111111,12.8888889 L2.88888889,12.8888889 C2.39796911,12.8888889 2,12.4909198 2,12 C2,11.5090802 2.39796911,11.1111111 2.88888889,11.1111111 Z M2.88888889,18.2222222 L21.1111111,18.2222222 C21.6020309,18.2222222 22,18.6201913 22,19.1111111 C22,19.6020309 21.6020309,20 21.1111111,20 L2.88888889,20 C2.39796911,20 2,19.6020309 2,19.1111111 C2,18.6201913 2.39796911,18.2222222 2.88888889,18.2222222 Z" id="Color" fill="#333333"></path>
    </g>
</svg>