<?xml version="1.0" encoding="UTF-8"?>
<svg width="80px" height="54px" viewBox="0 0 80 54" version="1.1" xmlns="http://www.w3.org/2000/svg" xmlns:xlink="http://www.w3.org/1999/xlink">
    <!-- Generator: Sketch 54.1 (76490) - https://sketchapp.com -->
    <title>Branding / Logo / No Discriptor / DLL Blue</title>
    <desc>Created with Sketch.</desc>
    <g id="Branding-/-Logo-/-No-Discriptor-/-DLL-Blue" stroke="none" stroke-width="1" fill="none" fill-rule="evenodd">
        <path d="M19.4526575,45.0702652 C13.5976201,45.0702652 9.34927564,40.9443061 9.34927564,35.2564612 C9.34927564,29.8121214 13.7052192,25.3808723 19.0605587,25.3808723 C24.4861113,25.3808723 28.5776162,29.6849172 28.5776162,35.3882084 C28.5776162,40.8189191 24.5690903,45.0702652 19.4526575,45.0702652 Z M36.2910193,0.00636020999 C37.1180742,0.00636020999 37.7964962,0.68145107 37.7964962,1.50646117 L37.7964962,51.6467223 C37.7964962,52.472641 37.1180742,53.1504577 36.2910193,53.1504577 L30.4168329,53.1504577 C29.5879544,53.1504577 28.911356,52.472641 28.911356,51.6467223 L28.911356,50.6963252 L28.9040612,50.6872392 C25.8301893,52.9160385 22.4088997,54 18.4742343,54 C13.9468615,54 9.88544789,52.5489635 6.72677328,49.8049872 C2.38997869,46.0788128 0,40.8661664 0,35.1274398 C0,29.8566429 2.2349629,24.7948243 6.133154,21.2385584 C9.42860725,18.1493135 13.6979244,16.5156481 18.4742343,16.5156481 C22.7244024,16.5156481 25.9806458,17.4978463 28.9040612,19.6803069 L28.911356,19.5948984 L28.911356,1.50646117 C28.911356,0.68145107 29.5879544,0.00636020999 30.4168329,0.00636020999 L36.2910193,0.00636020999 Z M78.4917876,31.0087495 C79.321578,31.0087495 80,31.6829318 80,32.5097591 L80,38.341163 C80,39.1643559 79.334344,39.8585274 78.4917876,39.8585274 L57.0895786,39.8585274 C56.2597882,39.8585274 55.5831899,39.1825279 55.5831899,38.3575178 L55.5676883,1.50010096 C55.5676883,0.674182259 56.2442866,0 57.0731652,0 L62.9464398,0 C63.7762302,0 64.4537403,0.674182259 64.4537403,1.50010096 L64.4537403,31.0087495 L78.4917876,31.0087495 Z M78.4844927,44.2806905 C79.3006052,44.2843249 79.9917933,44.9639588 79.9917933,45.7889689 L79.9917933,51.5567708 C79.9917933,52.3835981 79.3142831,53.085947 78.4844927,53.1431889 L43.745455,53.1431889 C42.9174883,53.085947 42.2390663,52.4099475 42.2390663,51.5831202 L42.2390663,1.50010096 C42.2390663,0.67509086 42.9174883,0 43.745455,0 L49.6187296,0 C50.4476081,0 51.1260301,0.67509086 51.1260301,1.50010096 L51.1324131,44.2861421 L78.4844927,44.2806905 Z" id="Logo" fill="#0099FF"></path>
    </g>
</svg>