<?xml version="1.0" encoding="UTF-8"?>
<svg width="24px" height="24px" viewBox="0 0 24 24" version="1.1" xmlns="http://www.w3.org/2000/svg" xmlns:xlink="http://www.w3.org/1999/xlink">
    <!-- Generator: Sketch 55.2 (78181) - https://sketchapp.com -->
    <title>Icons / 24x24 / Search</title>
    <desc>Created with Sketch.</desc>
    <defs>
        <path d="M22,20.9563027 L16.4114082,15.3381025 C19.1867026,11.9895074 18.8403975,7.05099588 15.6249319,4.1224931 C12.4094662,1.19399032 7.46017547,1.30950921 4.38484234,4.38484234 C1.30950921,7.46017547 1.19399032,12.4094662 4.1224931,15.6249319 C7.05099588,18.8403975 11.9895074,19.1867026 15.3381025,16.4114082 L20.9563027,22 L22,20.9563027 Z M3.49472921,10.1566267 C3.49472921,6.47736231 6.47736231,3.49472921 10.1566267,3.49472921 C13.8358911,3.49472921 16.8185242,6.47736231 16.8185242,10.1566267 C16.8185242,13.8358911 13.8358911,16.8185242 10.1566267,16.8185242 C6.47736231,16.8185242 3.49472921,13.8358911 3.49472921,10.1566267 Z" id="path-1"></path>
    </defs>
    <g id="Icons-/-24x24-/-Search" stroke="none" stroke-width="1" fill="none" fill-rule="evenodd">
        <mask id="mask-2" fill="white">
            <use xlink:href="#path-1"></use>
        </mask>
        <use id="Color" fill="#333333" xlink:href="#path-1"></use>
    </g>
</svg>